<svg width="48" height="48" viewBox="0 0 64 64" xmlns="http://www.w3.org/2000/svg">
  <path
    d="M 37.32 49.89 V 14.11 c 7.703 2.3 13.334 9.45 13.334 17.89 c 0 8.44 -5.631 15.59 -13.334 17.89 M 31.987 8 v 20.228 l -3.047 -3.047 l -0.39 -7.604 L 31.729 8.013 a 23.884 23.884 0 0 0 -5.89 0.812 l -1.536 4.623 l -4.358 -2.185 a 24.072 24.072 0 0 0 -4.736 3.593 l 8.07 4.044 l 0.237 4.628 l -4.627 -0.237 l -4.045 -8.07 a 24.084 24.084 0 0 0 -3.593 4.736 l 2.186 4.359 l -4.625 1.536 a 23.947 23.947 0 0 0 -0.81 5.89 l 9.565 -3.178 l 7.604 0.388 L 28.216 32 l -3.046 3.048 l -7.604 0.388 L 8 32.259 c 0.022 2.037 0.312 4.005 0.81 5.889 l 4.626 1.536 l -2.186 4.359 a 24.084 24.084 0 0 0 3.593 4.736 l 4.045 -8.07 l 4.627 -0.237 l -0.236 4.627 l -8.07 4.045 a 24.175 24.175 0 0 0 4.735 3.593 l 4.358 -2.185 l 1.537 4.623 c 1.884 0.498 3.852 0.79 5.89 0.812 l -3.178 -9.564 l 0.39 -7.604 l 3.046 -3.047 V 56 c 13.255 0 24 -10.745 24 -24 s -10.745 -24 -24 -24"
    fill="#FF00AF" fill-rule="evenodd"/>
</svg>
