<svg xmlns="http://www.w3.org/2000/svg" viewBox="0 0 500 500" width="500" height="500">
    <g>
        <path fill="#FF00AF" d="M250.01,179.24v-70.75c-78.15,0-141.5,63.35-141.5,141.5h70.75C179.26,210.91,210.93,179.24,250.01,179.24z"/>
        <path fill="#FF00AF" d="M250.01,108.49v70.75c39.07,0,70.75,31.68,70.75,70.75h70.75C391.5,171.84,328.15,108.49,250.01,108.49z"/>
        <path fill="#FF00AF" d="M108.5,320.74v70.75c78.15,0,141.5-63.35,141.5-141.5h-70.75C179.24,289.06,147.57,320.74,108.5,320.74z"/>
        <path fill="#FF00AF" d="M320.74,249.99l-70.75,0c0,78.15,63.35,141.5,141.5,141.5l0-70.75 C352.42,320.74,320.74,289.06,320.74,249.99z"/>
    </g>
</svg>
