<svg xmlns="http://www.w3.org/2000/svg" width="48" height="48" viewBox="0 0 48 48">
    <path fill="#FF00AF"
          d="M28.4399525,38.9083333 L28.4399525,9.09166667 C34.8608582,11.0083333 39.5546294,16.9666667 39.5546294,24 C39.5546294,31.0333333 34.8608582,36.9916667 28.4399525,38.9083333 M23.9945818,4 L23.9945818,20.8566667 L21.4547273,18.3175 L21.1296393,11.9808333 L23.7795236,4.01083333 C22.1211653,4.03106587 20.4718343,4.25838235 18.8698606,4.6875 L17.5895138,8.54 L13.9568633,6.71916667 C12.5222618,7.55032353 11.1962409,8.55604614 10.0091275,9.71333333 L16.7359493,13.0833333 L16.9335028,16.94 L13.0766249,16.7425 L9.70487841,10.0175 C8.54735574,11.2043591 7.54136837,12.5300107 6.7099006,13.9641667 L8.53206077,17.5966667 L4.67684998,18.8766667 C4.24871651,20.4783862 4.02190796,22.1272017 4.00166712,23.785 L11.9746598,21.1366667 L18.3130431,21.46 L20.8512305,24 L18.3122096,26.54 L11.9738262,26.8633333 L4,24.2158333 C4.0183383,25.9133333 4.26007044,27.5533333 4.67518286,29.1233333 L8.53122721,30.4033333 L6.70906704,34.0358333 C7.54053481,35.4699893 8.54652218,36.7956408 9.70404484,37.9825 L13.0757913,31.2575 L16.9326693,31.06 L16.7359493,34.9158333 L10.0091275,38.2866667 C11.1965567,39.4432314 12.5222082,40.4488863 13.9560298,41.2808333 L17.5886802,39.46 L18.8698606,43.3125 C20.4402859,43.7275 22.0807302,43.9708333 23.7795236,43.9891667 L21.1304728,36.0191667 L21.4555609,29.6825 L23.9945818,27.1433333 L23.9945818,44 C35.0434076,44 44,35.0458333 44,24 C44,12.9541667 35.0434076,4 23.9945818,4"/>
</svg>
